<svg width="120" height="40" viewBox="0 0 856 284" fill="none" xmlns="http://www.w3.org/2000/svg">
<g clip-path="url(#clip0_2455_24094)">
<path d="M743.07 0H740.49C678.45 0 628.2 51.04 628.2 114V283.93H855.35V114C855.35 51.04 805.12 0 743.07 0Z" fill="#F1BE1A"/>
<path d="M754.19 211.79C754.19 235.89 734.7 255.5 710.61 255.5H657.1V113.5H697.29C715.4 113.5 730.06 128.17 730.06 146.27V147.03C730.06 155.33 726.99 162.9 721.92 168.67C740.51 173.65 754.2 190.61 754.2 210.79V211.79H754.19Z" fill="white"/>
<path d="M413.6 60.4601C412.77 59.9301 411.93 59.6601 411.08 59.6601C409.64 59.6601 407.89 60.4701 405.84 62.1001C403.79 63.7301 402 65.6101 400.48 67.7401C398.96 69.8701 398.2 71.5501 398.2 72.7801C398.2 73.6301 398.51 74.3301 399.12 74.8601C399.73 75.3901 400.79 75.8201 402.28 76.1401L412.04 77.9801C414.6 78.5101 416.52 79.4701 417.8 80.8601C419.08 82.2501 419.72 83.9501 419.72 85.9801C419.72 89.0701 418.97 92.0301 417.48 94.8601C415.99 97.6901 413.96 100.01 411.4 101.82C407.72 104.59 403.17 106.74 397.76 108.26C392.35 109.78 386.97 110.54 381.64 110.54C373.96 110.54 368.19 108.91 364.32 105.66C360.45 102.41 358.52 97.7901 358.52 91.8201C358.52 85.8501 359.96 78.3501 362.84 68.5401L370.36 70.4601C368.44 77.8701 367.48 83.5501 367.48 87.5001C367.48 91.1301 368.84 93.9501 371.56 95.9801C374.28 98.0101 378.23 99.0201 383.4 99.0201C388.15 99.0201 392.61 98.5001 396.8 97.4601C400.99 96.4201 404.37 95.1901 406.96 93.7801C409.55 92.3701 410.84 91.23 410.84 90.3801C410.84 89.4701 409.53 88.7801 406.92 88.3001L398.76 86.8601C395.61 86.2701 393.28 85.2101 391.76 83.6601C390.24 82.1101 389.48 80.01 389.48 77.34C389.48 73.5 390.73 69.3701 393.24 64.9401C395.75 60.5101 398.83 56.7801 402.48 53.7401C406.13 50.7001 409.56 49.1801 412.76 49.1801C416.81 49.1801 420.15 51.7101 422.76 56.7801L416.28 62.9401C415.32 61.8201 414.43 60.9901 413.6 60.4601Z" fill="white"/>
<path d="M438.92 90.66C436.15 87.75 434.68 83.34 434.52 77.42C434.25 71.13 433.99 62.27 433.72 50.86L433.16 32.38L443 31.66C442.95 36.46 442.92 49.98 442.92 72.22C442.92 76.01 443.71 78.83 445.28 80.7C446.85 82.57 449.32 83.5 452.68 83.5L451.56 95.02C445.91 95.02 441.69 93.57 438.92 90.66Z" fill="white"/>
<path d="M469 65.78C471.29 68.21 472.85 70.34 473.68 72.18C474.51 74.02 474.92 76.03 474.92 78.22C474.92 81.21 474.15 83.93 472.6 86.38C471.05 88.83 468.92 90.75 466.2 92.14C462.79 94.06 457.91 95.02 451.56 95.02C451.29 95.02 451.08 94.66 450.92 93.94C450.76 93.22 450.68 92.25 450.68 91.02C450.68 88.62 450.89 86.77 451.32 85.46C451.75 84.15 452.2 83.5 452.68 83.5C456.79 83.5 460.15 83.17 462.76 82.5C465.37 81.83 466.68 80.91 466.68 79.74C466.68 78.41 466.31 77.07 465.56 75.74C464.81 74.41 463.21 72.55 460.76 70.18C458.31 67.81 454.6 64.59 449.64 60.54L451.64 49.74L492.6 31.42L494.68 40.3L458.76 56.54C463.29 60.27 466.71 63.35 469 65.78Z" fill="white"/>
<path d="M497.72 92.94C496.33 100.25 491.88 105.9 484.36 109.9C478.23 113.15 470.2 115.69 460.28 117.5C459.75 116.01 458.71 112.7 457.16 107.58C469.64 105.29 478.19 102.69 482.8 99.78C487.41 96.87 489.72 93.82 489.72 90.62C489.72 88.86 489.36 85.98 488.64 81.98C487.92 77.98 487.08 74.03 486.12 70.14L495.32 67.26C495.91 70.99 496.6 74.35 497.4 77.34C497.99 79.63 498.96 81.23 500.32 82.14C501.68 83.05 503.83 83.5 506.76 83.5L505.64 95.02C502.01 95.02 499.37 94.33 497.72 92.94Z" fill="white"/>
<path d="M567 71.7801C567.32 75.1701 567.48 78.0101 567.48 80.3001C567.48 84.8901 566.44 88.4901 564.36 91.1001C562.28 93.7101 559.64 95.0201 556.44 95.0201C553.56 95.0201 550.99 94.4901 548.72 93.4201C546.45 92.3501 544.81 90.9101 543.8 89.1001C542.68 91.0201 541.15 92.4901 539.2 93.5001C537.25 94.5101 535.11 95.0201 532.76 95.0201C530.2 95.0201 527.95 94.5001 526 93.4601C524.05 92.4201 522.73 90.9401 522.04 89.0201C520.76 91.0501 518.8 92.5501 516.16 93.5401C513.52 94.5301 510.01 95.0201 505.64 95.0201C505.37 95.0201 505.16 94.6601 505 93.9401C504.84 93.2201 504.76 92.2501 504.76 91.0201C504.76 88.6201 504.97 86.7701 505.4 85.4601C505.83 84.1501 506.28 83.5001 506.76 83.5001C511.13 83.5001 514.32 82.8701 516.32 81.6201C518.32 80.3701 519.32 78.3301 519.32 75.5001V70.7801L527.24 70.0601V75.9801C527.24 78.3301 527.77 80.1701 528.84 81.5001C529.91 82.8301 531.51 83.5001 533.64 83.5001C535.77 83.5001 537.29 82.8301 538.52 81.5001C539.75 80.1701 540.36 78.4901 540.36 76.4601V71.5801L548.28 70.8601V75.8201C548.28 78.2201 549.04 80.1001 550.56 81.4601C552.08 82.8201 554.17 83.5001 556.84 83.5001C557.43 83.5001 557.91 83.3301 558.28 82.9801C558.65 82.6301 558.84 82.1901 558.84 81.6601C558.84 80.2701 558.61 77.9301 558.16 74.6201C557.71 71.3101 557.19 68.1901 556.6 65.2601L565.88 62.6201C566.31 65.3401 566.68 68.3901 567 71.7801ZM541.88 50.2201H553.72V58.7001H530.84V50.2201H541.88ZM537.4 46.5401V38.0601H547.16V46.5401H537.4Z" fill="white"/>
<path d="M259.49 203.67C259.49 215.52 249.88 225.13 238.03 225.13H147.75V137.92H131.52V232.69H238.03C258.84 232.69 275.71 215.82 275.71 195.01V166.06H259.48V203.66L259.49 203.67Z" fill="white"/>
<path d="M75.13 137.93H58.92V232.7H75.13V137.93Z" fill="white"/>
<path d="M95.14 237.63C95.14 242.09 91.53 245.7 87.07 245.7H73.1V253.27H85.11C99.6 253.27 111.35 241.52 111.35 227.03V166.07H95.15V237.63H95.14Z" fill="white"/>
<path d="M22.54 237.63C22.54 242.09 18.93 245.7 14.47 245.7H0.5V253.27H10.14C25.94 253.27 38.75 240.46 38.75 224.66V166.07H22.54V237.63Z" fill="white"/>
<path d="M568.37 242.62H552.17V253.27H568.37V242.62Z" fill="white"/>
<path d="M275.72 242.62H259.52V253.27H275.72V242.62Z" fill="white"/>
<path d="M111.42 137.93H95.22V148.58H111.42V137.93Z" fill="white"/>
<path d="M512.39 245.7H462.8V253.27H512.39V245.7Z" fill="white"/>
<path d="M568.36 166.07H552.17V205.25C552.17 216.23 543.27 225.14 532.28 225.14C521.29 225.14 512.39 216.24 512.39 205.25V166.07H496.67H496.19V196.62V206.33C496.19 216.72 487.77 225.14 477.38 225.14C469.75 225.14 462.88 220.53 459.98 213.47L444.74 176.31C440.32 165.53 429.83 158.5 418.18 158.5C404.33 158.5 392.46 168.38 389.95 182L383.1 219.13C382.58 221.96 380.51 224.38 377.7 224.98C374.25 225.72 370.92 223.83 369.71 220.69L353.41 178.45C348.77 166.43 337.21 158.5 324.33 158.5C307.11 158.5 293.16 172.46 293.16 189.67V232.71H340.55V225.14H309.39V179.53C309.39 172.1 315.41 166.08 322.84 166.08C328.42 166.08 333.42 169.52 335.41 174.73L350.95 215.43C354.47 224.65 362.7 231.53 372.52 232.56C380.37 233.39 387.71 230.63 392.99 225.63L412.87 231.35C423.74 234.48 435.66 232.19 444.08 224.64C444.56 224.21 445.02 223.77 445.47 223.32C446.21 222.58 446.9 221.8 447.57 221C454.53 228.33 464.32 232.7 474.82 232.7C486.56 232.7 497.04 227.31 503.93 218.88C510.54 227.29 520.77 232.7 532.29 232.7C552.22 232.7 568.37 216.54 568.37 196.62V166.07H568.36ZM439.47 208.7C438.52 220.41 426.37 227.85 415.18 224.27L398.13 218.82C399.27 216.62 400.12 214.23 400.6 211.68L407.79 173.21C408.56 169.07 412.18 166.06 416.4 166.06C419.95 166.06 423.15 168.21 424.5 171.49L439.49 208.04C439.48 208.26 439.49 208.47 439.46 208.69L439.47 208.7Z" fill="white"/>
</g>
<defs>
<clipPath id="clip0_2455_24094">
<rect width="854.85" height="283.93" fill="white" transform="translate(0.5)"/>
</clipPath>
</defs>
</svg>
